<mxfile host="app.diagrams.net" modified="2024-01-01T14:19:42.437Z" agent="Mozilla/5.0 (Macintosh; Intel Mac OS X 10_15_7) AppleWebKit/605.1.15 (KHTML, like Gecko) Version/17.2.1 Safari/605.1.15" etag="T1kxOK88kYj-oOuSbgiU" version="22.1.16" type="github">
  <diagram name="PÃ¡gina-1" id="w0aGWRTjO0ngxm0BI9Ul">
    <mxGraphModel dx="838" dy="752" grid="1" gridSize="10" guides="1" tooltips="1" connect="1" arrows="1" fold="1" page="1" pageScale="1" pageWidth="827" pageHeight="1169" math="0" shadow="0">
      <root>
        <mxCell id="0" />
        <mxCell id="1" parent="0" />
        <mxCell id="KNmCwUFWDGKhglCXric5-11" style="edgeStyle=orthogonalEdgeStyle;rounded=0;orthogonalLoop=1;jettySize=auto;html=1;" edge="1" parent="1" source="KNmCwUFWDGKhglCXric5-2" target="KNmCwUFWDGKhglCXric5-9">
          <mxGeometry relative="1" as="geometry" />
        </mxCell>
        <mxCell id="KNmCwUFWDGKhglCXric5-2" value="rerunServiceLinkStartOrder&lt;br&gt;" style="sketch=0;outlineConnect=0;fontColor=#232F3E;gradientColor=none;fillColor=#ED7100;strokeColor=none;dashed=0;verticalLabelPosition=bottom;verticalAlign=top;align=center;html=1;fontSize=12;fontStyle=0;aspect=fixed;pointerEvents=1;shape=mxgraph.aws4.lambda_function;" vertex="1" parent="1">
          <mxGeometry x="190" y="252" width="48" height="48" as="geometry" />
        </mxCell>
        <mxCell id="KNmCwUFWDGKhglCXric5-8" style="edgeStyle=orthogonalEdgeStyle;rounded=0;orthogonalLoop=1;jettySize=auto;html=1;" edge="1" parent="1" source="KNmCwUFWDGKhglCXric5-7" target="KNmCwUFWDGKhglCXric5-2">
          <mxGeometry relative="1" as="geometry" />
        </mxCell>
        <mxCell id="KNmCwUFWDGKhglCXric5-7" value="Client App&lt;br&gt;" style="points=[[0.03,0.03,0],[0.5,0,0],[0.97,0.03,0],[1,0.4,0],[0.97,0.745,0],[0.5,1,0],[0.03,0.745,0],[0,0.4,0]];verticalLabelPosition=bottom;sketch=0;html=1;verticalAlign=top;aspect=fixed;align=center;pointerEvents=1;shape=mxgraph.cisco19.workstation;fillColor=#005073;strokeColor=none;" vertex="1" parent="1">
          <mxGeometry x="50" y="256" width="50" height="40" as="geometry" />
        </mxCell>
        <mxCell id="KNmCwUFWDGKhglCXric5-12" style="edgeStyle=orthogonalEdgeStyle;rounded=0;orthogonalLoop=1;jettySize=auto;html=1;" edge="1" parent="1" source="KNmCwUFWDGKhglCXric5-9" target="KNmCwUFWDGKhglCXric5-10">
          <mxGeometry relative="1" as="geometry" />
        </mxCell>
        <mxCell id="KNmCwUFWDGKhglCXric5-9" value="solar-&lt;br&gt;serviceLinkStartOrder" style="sketch=0;outlineConnect=0;fontColor=#232F3E;gradientColor=none;fillColor=#ED7100;strokeColor=none;dashed=0;verticalLabelPosition=bottom;verticalAlign=top;align=center;html=1;fontSize=12;fontStyle=0;aspect=fixed;pointerEvents=1;shape=mxgraph.aws4.lambda_function;" vertex="1" parent="1">
          <mxGeometry x="330" y="310" width="48" height="48" as="geometry" />
        </mxCell>
        <mxCell id="KNmCwUFWDGKhglCXric5-10" value="core -&lt;br&gt;&amp;nbsp;serviceLinkStartOrder" style="sketch=0;outlineConnect=0;fontColor=#232F3E;gradientColor=none;fillColor=#ED7100;strokeColor=none;dashed=0;verticalLabelPosition=bottom;verticalAlign=top;align=center;html=1;fontSize=12;fontStyle=0;aspect=fixed;pointerEvents=1;shape=mxgraph.aws4.lambda_function;" vertex="1" parent="1">
          <mxGeometry x="520" y="310" width="48" height="48" as="geometry" />
        </mxCell>
      </root>
    </mxGraphModel>
  </diagram>
</mxfile>
